<?xml version="1.0" encoding="UTF-8" standalone="no"?> <!-- Created with Vectornator for iOS (http://vectornator.io/) --><!DOCTYPE svg PUBLIC "-//W3C//DTD SVG 1.1//EN" "http://www.w3.org/Graphics/SVG/1.1/DTD/svg11.dtd">
<svg height="100%" style="fill-rule:nonzero;clip-rule:evenodd;stroke-linecap:round;stroke-linejoin:round;" xmlns:xlink="http://www.w3.org/1999/xlink" xmlns="http://www.w3.org/2000/svg" xml:space="preserve" width="100%" xmlns:vectornator="http://vectornator.io" version="1.1" viewBox="0 0 1024 1024">
<metadata>
<vectornator:setting key="DimensionsVisible" value="1"/>
<vectornator:setting key="PencilOnly" value="0"/>
<vectornator:setting key="SnapToPoints" value="0"/>
<vectornator:setting key="OutlineMode" value="0"/>
<vectornator:setting key="CMYKEnabledKey" value="0"/>
<vectornator:setting key="RulersVisible" value="1"/>
<vectornator:setting key="SnapToEdges" value="0"/>
<vectornator:setting key="GuidesVisible" value="1"/>
<vectornator:setting key="DisplayWhiteBackground" value="0"/>
<vectornator:setting key="doHistoryDisabled" value="0"/>
<vectornator:setting key="SnapToGuides" value="1"/>
<vectornator:setting key="TimeLapseWatermarkDisabled" value="0"/>
<vectornator:setting key="Units" value="Pixels"/>
<vectornator:setting key="DynamicGuides" value="0"/>
<vectornator:setting key="IsolateActiveLayer" value="0"/>
<vectornator:setting key="SnapToGrid" value="0"/>
</metadata>
<defs/>
<g id="main" vectornator:layerName="main">
<path d="M-2995.18+645.902C-2995.18+650.44-2998.87+654.123-3003.4+654.123L-3463.78+654.123C-3468.32+654.123-3472+650.44-3472+645.902L-3472+613.018C-3471.82+583.619-3454.91+556.892-3428.43+544.125L-3312.76+488.797C-3291.8+515.187-3264.18+534.013-3233.59+534.013C-3203.01+534.013-3175.39+515.187-3154.43+488.797L-3038.75+544.125C-3012.19+556.934-2995.27+583.775-2995.18+613.264C-2995.18+613.264-2995.18+645.902-2995.18+645.902Z" opacity="1" fill="#f283a5"/>
<path d="M-3346.88+528.176L-3233.59+593.451L-3120.31+528.176C-3113.58+524.806-3108.21+519.24-3105.1+512.392L-3154.43+488.797C-3175.39+515.187-3203.01+534.013-3233.59+534.013C-3264.18+534.013-3291.8+515.187-3312.76+488.797L-3362.09+512.392C-3358.97+519.24-3353.6+524.806-3346.88+528.176Z" opacity="1" fill="#f7a1c8"/>
<path d="M-3028.07+618.115L-3439.12+618.115C-3457.28+618.115-3472+632.839-3472+650.999L-3472+650.999C-3472+655.537-3468.32+659.22-3463.78+659.22L-3003.4+659.22C-2998.87+659.22-2995.18+655.537-2995.18+650.999L-2995.18+650.999C-2995.18+632.839-3009.91+618.115-3028.07+618.115Z" opacity="1" fill="#ed7899"/>
<path d="M-3339.89+421.878L-3339.89+421.878C-3342.44+421.878-3350.66+415.137-3354.94+399.106C-3359.21+383.075-3355.35+372.223-3353.37+371.729C-3353.37+371.729-3337.75+369.017-3337.59+365.893C-3337.38+361.396-3336.89+356.923-3336.11+352.492C-3335.65+347.74-3335.87+342.956-3336.77+338.27C-3338.94+323.464-3339.3+308.444-3337.84+293.547C-3335.04+265.76-3318.76+249.236-3294.18+249.236C-3292.32+249.227-3290.5+248.627-3289+247.509C-3272.36+237.184-3253.18+231.717-3233.59+231.725L-3224.88+231.725C-3172.1+231.725-3134.45+258.69-3118.42+306.29C-3124.42+305.632-3122.45+309.825-3126.64+313.935C-3130.83+318.046-3141.27+319.69-3137.33+330.378C-3132.55+341.624-3129.77+353.61-3129.1+365.81C-3129.1+368.934-3113.48+363.426-3113.32+363.426C-3111.18+364.166-3107.4+382.91-3111.76+399.023C-3116.22+411.215-3123.07+422.388-3131.9+431.908C-3131.9+431.908-3149.99+463.888-3154.34+471.04C-3173.5+502.527-3201.7+526.943-3233.1+526.943C-3278.07+526.943-3316.46+477.123-3331.1+427.879C-3332.32+424.114-3335.94+421.648-3339.89+421.878Z" opacity="1" fill="#fdeedd"/>
<path d="M-3337.59+365.81C-3337.59+365.81-3344.5+345.422-3336.19+343.531C-3312.06+337.842-3292.5+320.241-3284.32+296.836C-3255.96+306.29-3265+328.158-3148.34+322.321C-3143.41+322.321-3131.9+351.752-3126.23+351.423C-3124.83+351.423-3087.42+379.375-3132.39+432.072C-3142.92+444.404-3155+464.956-3153.44+478.357C-3150.48+503.595-3106.17+512.474-3105.1+512.392C-3101.56+512.392-3035.8+484.029-3036.78+481.974C-3070.32+412.177-3098.19+323.39-3095.15+320.512C-3089.89+315.497-3102.47+300.288-3095.15+301.111C-3114.22+242.659-3160.92+207.637-3225.37+207.637L-3241.81+198.841C-3299.36+198.841-3360.61+249.236-3364.06+283.189C-3366.53+307.852-3407.8+430.428-3406.24+442.348C-3406.24+442.348-3430.9+464.956-3423.17+486.578C-3387.49+512.31-3330.68+505.651-3307.58+486.578C-3302.82+482.632-3338.41+429.03-3352.31+417.767C-3359.87+411.602-3358.14+373.538-3352.8+367.455C-3341.54+354.465-3337.59+365.81-3337.59+365.81Z" opacity="1" fill="#f9dd8f"/>
<path d="M-3110.28+601.673C-3114.82+601.673-3118.5+605.356-3118.5+609.894L-3118.5+626.336C-3118.5+630.874-3114.82+634.557-3110.28+634.557C-3105.74+634.557-3102.06+630.874-3102.06+626.336L-3102.06+609.894C-3102.06+605.356-3105.74+601.673-3110.28+601.673ZM-3069.17+601.673C-3073.71+601.673-3077.39+605.356-3077.39+609.894L-3077.39+626.336C-3077.39+630.874-3073.71+634.557-3069.17+634.557C-3064.63+634.557-3060.95+630.874-3060.95+626.336L-3060.95+609.894C-3060.95+605.356-3064.63+601.673-3069.17+601.673ZM-3036.29+609.894L-3036.29+626.336C-3036.29+630.874-3032.61+634.557-3028.07+634.557C-3023.53+634.557-3019.85+630.874-3019.85+626.336L-3019.85+609.894C-3019.85+605.356-3023.53+601.673-3028.07+601.673C-3032.61+601.673-3036.29+605.356-3036.29+609.894ZM-3151.38+601.673C-3155.92+601.673-3159.6+605.356-3159.6+609.894L-3159.6+626.336C-3159.6+630.874-3155.92+634.557-3151.38+634.557C-3146.85+634.557-3143.16+630.874-3143.16+626.336L-3143.16+609.894C-3143.16+605.356-3146.85+601.673-3151.38+601.673ZM-3192.49+601.673C-3197.03+601.673-3200.71+605.356-3200.71+609.894L-3200.71+626.336C-3200.71+630.874-3197.03+634.557-3192.49+634.557C-3187.95+634.557-3184.27+630.874-3184.27+626.336L-3184.27+609.894C-3184.27+605.356-3187.95+601.673-3192.49+601.673ZM-3233.59+593.451C-3238.13+593.451-3241.81+597.135-3241.81+601.673L-3241.81+634.557C-3241.81+639.095-3238.13+642.778-3233.59+642.778C-3229.06+642.778-3225.37+639.095-3225.37+634.557L-3225.37+601.673C-3225.37+597.135-3229.06+593.451-3233.59+593.451ZM-3274.7+601.673C-3279.24+601.673-3282.92+605.356-3282.92+609.894L-3282.92+626.336C-3282.92+630.874-3279.24+634.557-3274.7+634.557C-3270.16+634.557-3266.48+630.874-3266.48+626.336L-3266.48+609.894C-3266.48+605.356-3270.16+601.673-3274.7+601.673ZM-3315.8+601.673C-3320.34+601.673-3324.03+605.356-3324.03+609.894L-3324.03+626.336C-3324.03+630.874-3320.34+634.557-3315.8+634.557C-3311.27+634.557-3307.58+630.874-3307.58+626.336L-3307.58+609.894C-3307.58+605.356-3311.27+601.673-3315.8+601.673ZM-3356.91+601.673C-3361.45+601.673-3365.13+605.356-3365.13+609.894L-3365.13+626.336C-3365.13+630.874-3361.45+634.557-3356.91+634.557C-3352.37+634.557-3348.69+630.874-3348.69+626.336L-3348.69+609.894C-3348.69+605.356-3352.37+601.673-3356.91+601.673ZM-3398.02+601.673C-3402.55+601.673-3406.24+605.356-3406.24+609.894L-3406.24+626.336C-3406.24+630.874-3402.55+634.557-3398.02+634.557C-3393.48+634.557-3389.79+630.874-3389.79+626.336L-3389.79+609.894C-3389.79+605.356-3393.48+601.673-3398.02+601.673ZM-3439.12+601.673C-3443.66+601.673-3447.34+605.356-3447.34+609.894L-3447.34+626.336C-3447.34+630.874-3443.66+634.557-3439.12+634.557C-3434.58+634.557-3430.9+630.874-3430.9+626.336L-3430.9+609.894C-3430.9+605.356-3434.58+601.673-3439.12+601.673Z" opacity="1" fill="#986ca1"/>
<path d="M-3304.62+328.98C-3300.83+331.479-3295.74+330.443-3293.23+326.653C-3293.22+326.637-3293.2+326.612-3293.2+326.596L-3280.04+306.619L-3267.22+312.867C-3243.66+324.343-3217.79+330.328-3191.58+330.378L-3170.62+330.378C-3166.08+330.378-3162.4+326.695-3162.4+322.157C-3162.4+317.618-3166.08+313.935-3170.62+313.935L-3191.58+313.935C-3215.29+313.903-3238.67+308.51-3259.98+298.151L-3272.81+291.903C-3280.25+288.269-3289.23+290.736-3293.77+297.658L-3306.93+317.635C-3309.4+321.408-3308.37+326.473-3304.62+328.98Z" opacity="1" fill="#8d6c9f"/>
<path d="M-3038.34+530.807L-3078.96+511.241C-3066.71+507.804-3054.67+503.719-3042.87+498.992C-3030.26+493.82-3024.24+479.409-3029.42+466.814C-3030.01+465.359-3030.75+463.97-3031.6+462.654L-3046.89+439.224C-3057.01+423.785-3064.31+406.661-3068.43+388.665L-3087.09+307.359C-3100.9+246.687-3153.14+202.45-3215.26+198.841C-3223.58+193.382-3233.34+190.521-3243.29+190.62C-3308.87+190.315-3365.71+235.893-3379.68+299.96L-3399.82+390.391C-3403.97+408.823-3411.43+426.342-3421.86+442.102L-3435.5+462.819C-3443.02+474.18-3439.91+489.48-3428.55+496.994C-3427.22+497.882-3425.8+498.63-3424.32+499.238C-3412.62+503.875-3400.69+507.878-3388.56+511.241L-3428.84+530.807C-3460.17+545.917-3480.12+577.585-3480.23+612.36L-3480.23+642.778C-3480.23+656.4-3469.18+667.441-3455.56+667.441L-3011.63+667.441C-2998+667.441-2986.96+656.4-2986.96+642.778L-2986.96+612.36C-2987.07+577.585-3007.02+545.917-3038.34+530.807ZM-3417.99+484.029C-3420.26+483.067-3421.99+481.135-3422.68+478.768C-3423.39+476.433-3423.03+473.901-3421.69+471.862L-3408.04+451.145C-3396.37+433.634-3388.01+414.125-3383.38+393.598L-3363.24+303.166C-3350.8+246.934-3300.89+206.938-3243.29+207.062C-3235.97+207.086-3228.84+209.479-3222.99+213.885C-3221.66+214.888-3220.05+215.464-3218.38+215.529C-3162.88+217.815-3115.76+256.931-3103.29+311.058L-3084.63+392.529C-3080.11+412.391-3072.09+431.291-3060.95+448.35L-3045.33+471.78C-3044.15+473.761-3043.85+476.145-3044.51+478.357C-3045.24+480.708-3046.99+482.615-3049.28+483.536C-3066.43+490.277-3084.04+495.777-3101.97+499.978L-3147.44+478.357C-3138.73+464.849-3131.77+450.29-3126.72+435.032C-3116.61+431.25-3107.4+418.59-3103.04+402.147C-3100.49+393.219-3099.98+383.839-3101.56+374.689C-3102.4+366.172-3108.12+358.921-3116.2+356.109C-3117.38+355.781-3118.59+355.592-3119.81+355.534C-3120.7+348.957-3122.17+342.463-3124.17+336.132C-3125.55+331.8-3130.2+329.407-3134.53+330.789C-3138.86+332.17-3141.25+336.815-3139.87+341.147C-3137.1+349.442-3135.44+358.066-3134.94+366.797C-3134.71+371.335-3130.85+374.821-3126.31+374.59C-3124.88+374.516-3123.48+374.072-3122.28+373.291C-3121.61+372.815-3120.86+372.478-3120.06+372.305C-3119.65+372.305-3118.09+374.114-3117.27+378.306C-3116.2+384.974-3116.62+391.797-3118.5+398.284C-3122.53+413.41-3130.34+419.823-3132.72+419.823L-3132.72+419.823C-3136.47+419.658-3139.86+422.067-3140.94+425.66C-3154.75+472.273-3191.01+519.462-3233.59+519.462C-3276.18+519.462-3312.43+472.273-3326.25+425.742C-3327.33+422.149-3330.72+419.74-3334.47+419.905L-3334.47+419.905C-3336.85+419.905-3344.66+413.492-3348.69+398.366C-3350.55+391.904-3350.98+385.113-3349.92+378.471C-3349.1+374.278-3347.54+372.552-3347.21+372.469L-3347.21+372.469C-3346.4+372.617-3345.64+372.954-3344.99+373.456C-3341.2+375.955-3336.1+374.903-3333.6+371.113C-3332.76+369.83-3332.29+368.334-3332.25+366.797C-3331.84+358.247-3330.31+349.796-3327.73+341.64C-3326.36+337.308-3328.78+332.688-3333.11+331.323C-3337.44+329.958-3342.06+332.375-3343.43+336.708C-3345.4+342.989-3346.83+349.426-3347.7+355.945C-3348.93+355.994-3350.14+356.192-3351.32+356.521C-3359.4+359.332-3365.11+366.583-3365.95+375.1C-3367.54+384.25-3367.03+393.63-3364.47+402.558C-3360.03+419.001-3350.83+431.332-3340.8+435.443C-3335.62+450.578-3328.54+464.997-3319.75+478.357L-3365.87+500.389C-3383.62+496.213-3401.04+490.746-3417.99+484.029ZM-3003.4+642.778C-3003.4+647.316-3007.09+650.999-3011.63+650.999L-3455.56+650.999C-3460.1+650.999-3463.78+647.316-3463.78+642.778L-3463.78+612.36C-3463.78+583.858-3447.41+557.895-3421.69+545.605L-3310.05+492.168C-3289.83+517.736-3263.19+535.904-3233.59+535.904C-3204+535.904-3177.36+517.736-3157.14+492.25L-3045.5+545.687L-3045.5+545.687C-3019.81+557.961-3003.44+583.89-3003.4+612.36L-3003.4+642.778Z" opacity="1" fill="#8d6c9f"/>
<path d="M-3320+551.195L-3237.79+600.522C-3235.25+601.993-3232.11+601.993-3229.57+600.522L-3147.35+551.195C-3143.15+549.469-3141.16+544.659-3142.89+540.459C-3144.62+536.258-3149.43+534.26-3153.63+535.994C-3154.33+536.282-3154.98+536.669-3155.58+537.137L-3233.59+583.833L-3311.61+537.055C-3315.18+534.243-3320.35+534.86-3323.15+538.428C-3325.97+541.996-3325.35+547.167-3321.78+549.97C-3321.19+550.439-3320.52+550.825-3319.82+551.113L-3320+551.195Z" opacity="1" fill="#986ca1"/>
<path d="M772.438+534.125C746.779+534.125+725.906+567.351+725.906+608.188C725.906+649.024+746.779+682.25+772.438+682.25C796.405+682.25+818.969+624.285+818.969+579.375C818.969+552.192+811.064+534.125+772.438+534.125Z" opacity="1" fill="#2b2b2b"/>
<path d="M744.656+521.781C737.979+521.781+731.557+522.762+725.312+524.188C726.675+527.126+727.594+530.318+727.594+533.781C727.594+539.246+725.642+544.207+722.5+548.188L722.844+550.5C729.644+547.933+736.967+546.469+744.656+546.469C806.564+546.469+806.562+564.709+806.562+579.375C806.562+616.78+774.545+669.906+744.656+669.906C743.379+669.906+742.134+669.795+740.875+669.719L744.656+694.594C792.523+694.594+831.312+627.1+831.312+579.375C831.312+531.65+792.524+521.781+744.656+521.781Z" opacity="1" fill="#2b2b2b"/>
<path d="M198.861+682.248C174.913+682.248+152.361+624.277+152.361+579.367C152.361+552.184+160.266+534.111+198.861+534.111C224.498+534.111+245.361+567.343+245.361+608.179C245.361+649.016+224.498+682.248+198.861+682.248Z" opacity="1" fill="#2b2b2b"/>
<path d="M226.43+546.456C235.708+546.456+244.517+548.514+252.422+552.199M251.165+525.358C243.329+523.021+235.026+521.766+226.43+521.766L226.43+521.766C178.705+521.766+140.016+531.642+140.016+579.367C140.016+627.092+178.705+694.593+226.43+694.593C232.527+694.593+238.477+693.961+244.218+692.76M252.427+664.157L251.574+664.542M251.071+664.77C243.518+668.071+235.183+669.903+226.43+669.903C196.629+669.903+164.706+616.771+164.706+579.367C164.706+564.701+164.706+546.456+226.43+546.456M251.416+664.614L251.071+664.77" opacity="1" fill="#2b2b2b"/>
<path stroke="#2b2b2b" stroke-width="24" d="M343.5+204.25C272.024+204.25+214.094+262.18+214.094+333.656L214.094+694.594C214.094+812.61+289.504+912.765+394.656+950.219C417.247+975.007+449.461+990.875+485.656+990.875C521.851+990.875+554.097+975.032+576.688+950.219C681.84+912.79+757.25+812.61+757.25+694.594L757.25+333.656C757.25+262.18+699.32+204.25+627.844+204.25L343.5+204.25ZM343.5+228.938L627.844+228.938C685.593+228.938+732.562+275.907+732.562+333.656L732.562+694.594C732.562+798.611+666.59+891.984+568.375+926.969L562.562+929.031L558.406+933.625C539.297+954.636+513.432+966.188+485.656+966.188C457.881+966.188+432.047+954.605+412.938+933.594L408.781+929.031L402.969+926.938C304.754+891.977+238.781+798.61+238.781+694.594L238.781+333.656C238.781+275.907+285.751+228.938+343.5+228.938Z" fill="#2b2b2b" stroke-linecap="round" opacity="1" stroke-linejoin="round"/>
<path d="M460.969+65C267.798+65+152.375+207.805+152.375+345.844C152.375+451.984+208.475+598.285+222.375+632.875L226.406+632.875L226.406+532.125C226.406+437.91+282.762+386+385.125+386C541.138+386+623.623+292.469+624.438+291.531L629.969+285.125L637.969+287.969C639.03+288.339+744.906+327.772+744.906+467.688L744.906+632.844L748.688+632.844C762.415+595.785+818.969+438.006+818.969+354.531C818.969+187.852+691.714+150.312+647.125+150.312L640.969+150.312L637.25+145.438C614.56+115.39+561.455+65+460.969+65Z" opacity="1" fill="#2b2b2b"/>
<path d="M460.969+52.6562C255.379+52.6562+140.031+204.027+140.031+345.844C140.031+470.353+214.094+645.219+214.094+645.219L238.781+645.219C238.781+645.219+238.781+566.363+238.781+532.094C238.781+426.818+310.174+398.312+385.156+398.312C549.243+398.312+633.813+299.562+633.812+299.562C633.812+299.562+732.563+334.858+732.562+467.688C732.562+505.388+732.562+645.219+732.562+645.219L757.25+645.219C757.25+645.219+831.312+452.45+831.312+354.531C831.312+182.124+699.072+137.937+647.125+137.938C633.99+120.605+579.33+52.6562+460.969+52.6562ZM460.969+77.3438C556.122+77.3438+606.099+124.648+627.406+152.844L634.812+162.656L647.125+162.656C688.505+162.656+806.625+197.901+806.625+354.531C806.625+412.305+778.458+507.675+757.25+571.25L757.25+467.688C757.25+319.18+646.816+277.991+642.125+276.312L626.125+270.594L615.031+283.5C614.266+284.389+536.133+373.625+385.156+373.625C274.844+373.625+214.094+429.904+214.094+532.094L214.094+575.438C192.96+514.899+164.719+420.128+164.719+345.812C164.719+215.674+268.539+77.3438+460.969+77.3438Z" opacity="1" fill="#2b2b2b"/>
</g>
</svg>
