<?xml version="1.0" encoding="UTF-8" standalone="no"?> <!-- Created with Vectornator for iOS (http://vectornator.io/) --><!DOCTYPE svg PUBLIC "-//W3C//DTD SVG 1.1//EN" "http://www.w3.org/Graphics/SVG/1.1/DTD/svg11.dtd">
<svg height="100%" style="fill-rule:nonzero;clip-rule:evenodd;stroke-linecap:round;stroke-linejoin:round;" xmlns:xlink="http://www.w3.org/1999/xlink" xmlns="http://www.w3.org/2000/svg" xml:space="preserve" width="100%" xmlns:vectornator="http://vectornator.io" version="1.1" viewBox="0 0 1024 1024">
<metadata>
<vectornator:setting key="DimensionsVisible" value="1"/>
<vectornator:setting key="PencilOnly" value="0"/>
<vectornator:setting key="SnapToPoints" value="0"/>
<vectornator:setting key="OutlineMode" value="0"/>
<vectornator:setting key="CMYKEnabledKey" value="0"/>
<vectornator:setting key="RulersVisible" value="1"/>
<vectornator:setting key="SnapToEdges" value="0"/>
<vectornator:setting key="GuidesVisible" value="1"/>
<vectornator:setting key="DisplayWhiteBackground" value="0"/>
<vectornator:setting key="doHistoryDisabled" value="0"/>
<vectornator:setting key="SnapToGuides" value="1"/>
<vectornator:setting key="TimeLapseWatermarkDisabled" value="0"/>
<vectornator:setting key="Units" value="Points"/>
<vectornator:setting key="DynamicGuides" value="0"/>
<vectornator:setting key="IsolateActiveLayer" value="0"/>
<vectornator:setting key="SnapToGrid" value="0"/>
</metadata>
<defs/>
<g id="main" vectornator:layerName="main">
<path d="M392.469+696.875C227.076+706.865+96+844.097+96+1012L938.094+1012C938.094+844.568+807.707+707.851+642.969+697.188C643.339+698.278+643.65+699.383+643.875+700.5C644.049+701.365+644.131+702.079+644.219+702.844C644.239+703.022+644.303+703.537+644.312+703.625C646.157+710.658+644.527+717.786+640.531+723.281C782.955+732.178+897.794+844.339+910.594+985.688L123.5+985.688C136.288+844.467+250.943+732.333+393.188+723.25C391.059+720.336+389.498+716.938+388.906+713.125C387.988+707.211+389.451+701.529+392.469+696.875Z" opacity="1" fill="#2b2b2b"/>
<path d="M385.469+623.5L385.469+724.156C385.469+724.156+413.536+801.469+517.062+801.469C620.589+801.469+648.625+724.156+648.625+724.156L648.625+625.156C647.954+626.019+647.247+626.844+646.531+627.656C645.247+629.587+643.748+631.382+641.906+632.906C641.221+633.473+640.568+633.712+639.906+634.156C639.908+634.155+639.878+634.185+639.875+634.188C639.722+634.29+639.559+634.372+639.406+634.469C639.201+634.625+638.944+634.925+638.75+635.062C639.053+634.847+639.3+634.682+639.531+634.5C639.086+634.878+638.655+635.213+638.156+635.594C637.057+636.433+635.95+637.192+634.469+637.969C632.928+638.777+631.268+639.454+629.25+639.969C627.054+640.529+624.74+640.774+622.312+640.656L622.312+718.688C615.971+731.556+589.115+775.156+517.062+775.156C445.221+775.156+418.203+731.551+411.781+718.656L411.781+644.594C409.883+644.231+408.076+643.708+406.281+643C404.581+642.329+402.967+641.559+401.312+640.656C400.636+640.287+399.971+639.907+399.281+639.5C398.165+638.841+395.836+637.358+395.969+637.438C390.575+634.205+386.996+629.122+385.469+623.5Z" opacity="1" fill="#2b2b2b"/>
<path d="M701.25+363.281L701.25+472.531C701.25+556.768+644.175+630.081+562.438+650.844L556.312+652.406L551.562+656.594C544.642+662.673+533.063+669.906+517.062+669.906C501.063+669.906+489.484+662.673+482.562+656.594L477.781+652.406L471.656+650.844C389.919+630.081+332.844+556.768+332.844+472.531L332.844+403.938C329.685+403.904+326.496+403.269+323.438+401.875C324.032+402.146+324.544+402.357+325.031+402.531C325.301+402.628+325.963+402.811+325.969+402.812C325.86+402.784+323.446+402.189+322.969+402.062C321.79+401.751+320.766+401.462+319.656+401.062C318.583+400.676+317.525+400.249+316.375+399.656C313.49+398.168+310.962+396.36+308.375+393.031C307.649+392.097+307.109+391.073+306.531+390.062L306.531+472.531C306.531+570.873+374.057+653.213+465.188+676.344C479.083+688.555+497.115+696.219+517.062+696.219C537.01+696.219+555.011+688.555+568.906+676.344C660.038+653.213+727.594+570.873+727.594+472.531L727.594+365.938C724.243+367.793+720.446+368.938+716.344+368.938C710.559+368.937+705.331+366.761+701.25+363.281Z" opacity="1" fill="#2b2b2b"/>
<path d="M503.895+38.3158C595.553+38.3158+623.316+98.7632+624.342+101.079L631.105+117.263L648.632+117.263C697.184+117.263+753.895+151.816+753.895+249.237C753.895+289.658+740.553+341.289+727.579+381.947L727.579+354.105C727.579+251.237+641.842+196.237+638.184+193.947L617.105+180.684L602.711+201C602.211+201.711+551.632+271.368+442.053+271.368C352.132+271.395+306.526+308.079+306.526+380.421L306.526+388.684C293.605+351.263+280.211+301.711+280.211+257.026C280.211+126.211+370.105+38.3158+503.895+38.3158M503.895+12C350.763+12+253.895+116.763+253.895+257.026C253.895+349.947+306.526+459.368+306.526+459.368L332.842+459.368C332.842+459.368+332.842+405.974+332.842+380.421C332.842+310.211+386.105+297.711+442.053+297.711C566.526+297.711+624.211+216.237+624.211+216.237C624.211+216.237+701.263+264.605+701.263+354.105C701.263+382.237+701.263+459.368+701.263+459.368L727.579+459.368C727.579+459.368+780.211+333.895+780.211+249.237C780.211+130.368+704.5+90.9474+648.632+90.9474C648.632+90.9474+615.658+12+503.895+12L503.895+12Z" fill-rule="evenodd" fill="#2b2b2b" opacity="1"/>
</g>
</svg>
