<?xml version="1.0" encoding="UTF-8" standalone="no"?> <!-- Created with Vectornator for iOS (http://vectornator.io/) --><!DOCTYPE svg PUBLIC "-//W3C//DTD SVG 1.1//EN" "http://www.w3.org/Graphics/SVG/1.1/DTD/svg11.dtd">
<svg height="100%" style="fill-rule:nonzero;clip-rule:evenodd;stroke-linecap:round;stroke-linejoin:round;" xmlns:xlink="http://www.w3.org/1999/xlink" xmlns="http://www.w3.org/2000/svg" xml:space="preserve" width="100%" xmlns:vectornator="http://vectornator.io" version="1.1" viewBox="0 0 1024 1024">
<metadata>
<vectornator:setting key="DimensionsVisible" value="1"/>
<vectornator:setting key="PencilOnly" value="0"/>
<vectornator:setting key="SnapToPoints" value="0"/>
<vectornator:setting key="OutlineMode" value="0"/>
<vectornator:setting key="CMYKEnabledKey" value="0"/>
<vectornator:setting key="RulersVisible" value="1"/>
<vectornator:setting key="SnapToEdges" value="0"/>
<vectornator:setting key="GuidesVisible" value="1"/>
<vectornator:setting key="DisplayWhiteBackground" value="0"/>
<vectornator:setting key="doHistoryDisabled" value="0"/>
<vectornator:setting key="SnapToGuides" value="1"/>
<vectornator:setting key="TimeLapseWatermarkDisabled" value="0"/>
<vectornator:setting key="Units" value="Pixels"/>
<vectornator:setting key="DynamicGuides" value="0"/>
<vectornator:setting key="IsolateActiveLayer" value="0"/>
<vectornator:setting key="SnapToGrid" value="0"/>
</metadata>
<defs/>
<g id="main" vectornator:layerName="main">
<path d="M-3304.62+328.98C-3300.83+331.479-3295.74+330.443-3293.23+326.653C-3293.22+326.637-3293.2+326.612-3293.2+326.596L-3280.04+306.619L-3267.22+312.867C-3243.66+324.343-3217.79+330.328-3191.58+330.378L-3170.62+330.378C-3166.08+330.378-3162.4+326.695-3162.4+322.157C-3162.4+317.618-3166.08+313.935-3170.62+313.935L-3191.58+313.935C-3215.29+313.903-3238.67+308.51-3259.98+298.151L-3272.81+291.903C-3280.25+288.269-3289.23+290.736-3293.77+297.658L-3306.93+317.635C-3309.4+321.408-3308.37+326.473-3304.62+328.98Z" opacity="1" fill="#2b2b2b"/>
<path stroke="#2b2b2b" stroke-width="24" d="M647.282+228.928C705.031+228.928+752.015+275.912+752.015+333.661L752.015+694.596C752.015+798.613+686.044+891.989+587.83+926.974L582.003+929.048L577.855+933.615C558.746+954.601+532.896+966.18+505.12+966.18C477.344+966.18+451.494+954.601+432.385+933.59L428.237+929.023L422.41+926.949C324.196+891.989+258.225+798.613+258.225+694.596L258.225+333.661C258.225+275.912+305.209+228.928+362.958+228.928L647.282+228.928M647.282+204.239L362.958+204.239C291.482+204.239+233.536+262.185+233.536+333.661L233.536+694.596C233.536+812.612+308.962+912.777+414.115+950.231C436.705+975.019+468.925+990.87+505.12+990.87C541.315+990.87+573.535+975.019+596.125+950.206C701.278+912.752+776.704+812.612+776.704+694.596L776.704+333.661C776.704+262.185+718.758+204.239+647.282+204.239L647.282+204.239Z" fill="#2b2b2b" stroke-linecap="round" opacity="1" stroke-linejoin="round"/>
<path d="M784.704+956.836C715.919+956.836+652.418+932.146+621.926+918.172C661.405+890.52+747.67+815.908+747.67+692.313L747.67+497.142C747.67+403.964+647.11+343.821+642.814+341.278L631.802+334.809L625.704+346.043C625.062+347.228+559.166+465.046+394.141+487.835C314.691+498.797+229.166+555.237+229.166+653.229L229.166+692.288C229.166+817.538+323.776+894.989+367.971+924.344C334.936+936.566+271.682+956.836+216.846+956.836C121.446+956.836+74.5115+912.716+59.6731+895.285C79.5975+869.756+140.111+787.12+140.111+725.816C140.111+692.732+132.458+654.563+124.36+614.195C115.224+568.52+105.744+521.313+105.744+475.391C105.744+220.398+287.31+68.0147+462.852+68.0147C594.052+68.0147+648.369+156.922+650.616+160.699L654.22+166.748L661.257+166.773C774.952+166.773+895.807+257.63+895.807+426.012C895.807+480.798+883.808+538.324+872.179+593.95C862.106+642.218+852.6+687.795+852.6+725.816C852.6+802.057+929.384+870.028+961.53+895.112C933.779+914.543+864.106+956.836+784.704+956.836Z" opacity="1" fill="#2b2b2b"/>
<path d="M474.852+77.3595C598.497+77.3595+649.901+160.489+651.95+163.921L659.11+176.117L673.257+176.117C780.977+176.117+895.462+262.654+895.462+423.012C895.462+476.514+883.586+533.423+872.106+588.432C861.909+637.341+852.255+683.535+852.255+722.816C852.255+794.934+915.09+859.102+952.766+891.1C920.67+911.37+861.958+941.491+796.704+941.491C742.338+941.491+691.206+925.443+658.295+912.209C703.156+876.138+772.015+802.341+772.015+689.313L772.015+494.167C772.015+394.002+665.603+330.328+661.085+327.661L639.013+314.699L626.865+337.241C626.248+338.377+564.006+450.615+404.487+472.638C319.876+484.316+228.846+544.879+228.846+650.254L228.846+689.313C228.846+803.6+303.779+879.669+353.479+917.567C319.481+928.751+271.362+941.491+228.846+941.491C150.038+941.491+106.51+909.913+87.8694+891.544C113.102+858.115+164.481+782.738+164.481+722.816C164.481+688.498+156.704+649.76+148.482+608.776C139.446+563.693+130.088+517.104+130.088+472.391C130.088+225.126+305.384+77.3595+474.852+77.3595M474.852+55.67C291.311+55.67+105.399+215.436+105.399+475.391C105.399+563.927+139.791+657.649+139.791+725.816C139.791+793.984+56.02+895.112+56.02+895.112C56.02+895.112+103.547+969.18+228.846+969.18C310.396+969.18+407.746+926.739+407.746+926.739C407.746+926.739+253.536+846.597+253.536+692.313C253.536+670.191+253.536+660.142+253.536+653.254C253.536+562.446+333.579+510.351+407.845+500.08C581.609+476.082+648.567+351.944+648.567+351.944C648.567+351.944+747.325+409.964+747.325+497.167C747.325+534.868+747.325+630.416+747.325+692.313C747.325+843.659+608.891+919.505+608.891+919.505C608.891+919.505+696.588+969.18+796.704+969.18C905.14+969.18+994.22+895.112+994.22+895.112C994.22+895.112+876.945+814.773+876.945+725.816C876.945+646.785+920.152+530.77+920.152+426.012C920.152+248.347+789.939+154.428+673.257+154.428C673.257+154.428+615.286+55.67+474.852+55.67L474.852+55.67Z" opacity="1" fill="#2b2b2b"/>
<g opacity="1"/>
</g>
</svg>
